<?xml version="1.0" encoding="UTF-8"?>
<svg version="1.1" xmlns="http://www.w3.org/2000/svg" width="500" height="500">
<path d="M0 0 C165 0 330 0 500 0 C500 165 500 330 500 500 C335 500 170 500 0 500 C0 335 0 170 0 0 Z " fill="#FDFDFD" transform="translate(0,0)"/>
<path d="M0 0 C0.77698242 -0.00696899 1.55396484 -0.01393799 2.35449219 -0.02111816 C4.84445695 -0.03839405 7.33419657 -0.04483663 9.82421875 -0.046875 C10.67486908 -0.04788208 11.52551941 -0.04888916 12.40194702 -0.04992676 C25.01353503 -0.0398181 37.15885787 0.46409966 49.51171875 3.203125 C50.25599121 3.3582959 51.00026367 3.5134668 51.76708984 3.67333984 C62.98599333 6.02248484 74.36206371 8.66962937 84.5 14.17578125 C86.82513444 15.36318 89.21543857 16.36484687 91.61791992 17.3840332 C138.19182064 37.52783066 173.06410422 76.85880965 192.51171875 123.203125 C198.33651845 138.27416834 203.14183937 154.96205759 203.51171875 171.203125 C201.37248129 169.06388754 200.66152621 167.44928383 199.44921875 164.703125 C196.4295628 158.56668967 192.31226988 154.01913684 187.51171875 149.203125 C186.41923828 148.07583984 186.41923828 148.07583984 185.3046875 146.92578125 C176.08430216 137.98813345 164.58083538 131.44888519 152.51171875 127.203125 C149.93822522 126.17230577 147.3728709 125.12378942 144.80859375 124.0703125 C142.72050391 123.28195205 140.68682217 122.69202439 138.51171875 122.203125 C139.38054687 122.60144531 140.249375 122.99976563 141.14453125 123.41015625 C142.29695313 123.93996094 143.449375 124.46976562 144.63671875 125.015625 C145.77367187 125.53769531 146.910625 126.05976563 148.08203125 126.59765625 C167.1228809 135.5108558 184.64760535 148.44469204 192.56640625 168.50390625 C196.26475866 179.06407781 194.94480694 189.05259597 190.51171875 199.203125 C178.82166937 222.76088409 156.49661152 236.45306961 133.51171875 247.203125 C132.3825 247.73808594 131.25328125 248.27304687 130.08984375 248.82421875 C123.50485315 251.7998307 116.85576344 254.16381012 109.94921875 256.265625 C109.22573242 256.48686035 108.50224609 256.7080957 107.75683594 256.93603516 C105.01923508 257.73811635 102.27063911 258.47723311 99.51171875 259.203125 C98.79862549 259.3915799 98.08553223 259.58003479 97.35083008 259.77420044 C84.76949393 263.05590583 72.30345339 265.31407522 59.37988281 266.71655273 C56.61442712 267.01805534 53.85235265 267.34261616 51.08984375 267.66992188 C40.84606174 268.84726988 30.82555863 269.51557543 20.51171875 269.203125 C20.42920877 261.4471866 20.6498108 253.91268272 21.51171875 246.203125 C22.81484009 246.14366699 22.81484009 246.14366699 24.14428711 246.08300781 C48.312929 244.93068007 72.16326787 243.00214823 95.51171875 236.203125 C96.25583008 235.98930176 96.99994141 235.77547852 97.76660156 235.55517578 C124.2456423 227.85069925 154.08471618 215.62561498 168.35546875 190.52734375 C172.36542334 182.46679314 173.24923141 172.57050413 170.51171875 163.828125 C163.29583354 148.50264402 146.28573048 141.1533348 131.51171875 135.203125 C130.66351563 134.82542969 129.8153125 134.44773438 128.94140625 134.05859375 C112.75979374 126.98266215 92.11869923 122.203125 74.51171875 122.203125 C75.20096436 122.33364258 75.89020996 122.46416016 76.6003418 122.59863281 C134.1778898 133.58227264 134.1778898 133.58227264 150.35546875 156.34375 C152.81693821 160.30205899 153.9835976 163.53805483 154.51171875 168.203125 C154.5890625 168.87472656 154.66640625 169.54632813 154.74609375 170.23828125 C155.24418444 178.08320958 152.30519947 183.78137074 147.41015625 189.77734375 C141.25440102 196.32409972 134.37846248 200.9341412 126.51171875 205.203125 C125.45082031 205.78707031 124.38992188 206.37101563 123.296875 206.97265625 C99.46370438 219.06669358 70.12422767 225.74623743 43.51171875 225.203125 C43.51171875 219.593125 43.51171875 213.983125 43.51171875 208.203125 C45.82171875 207.97625 48.13171875 207.749375 50.51171875 207.515625 C76.17184992 204.63295277 109.53928166 198.61722894 127.44921875 178.015625 C131.98137335 171.83541418 132.26996942 166.78563172 131.51171875 159.203125 C129.98097502 153.34256331 125.48336384 150.15386249 120.59375 146.9609375 C104.98806514 138.06035678 87.96005043 133.84114371 70.51171875 130.203125 C70.54313965 131.36360352 70.57456055 132.52408203 70.60693359 133.71972656 C70.71559189 138.02820028 70.78443578 142.33655321 70.84130859 146.64599609 C70.87146953 148.51046111 70.91240566 150.37478437 70.96435547 152.23876953 C71.03720592 154.91995178 71.07117993 157.59925823 71.09765625 160.28125 C71.12862396 161.11368225 71.15959167 161.9461145 71.1914978 162.80377197 C71.19282551 165.09044497 71.13339993 167.00171742 70.51171875 169.203125 C65.95807232 173.203125 65.95807232 173.203125 62.51171875 173.203125 C62.5036319 172.3807132 62.49554504 171.55830139 62.48721313 170.71096802 C62.40935994 162.97075678 62.32209786 155.23073658 62.22419167 147.49075508 C62.17418769 143.51128773 62.12785828 139.53184747 62.08984375 135.55224609 C62.05304238 131.71365618 62.006697 127.8752906 61.95365524 124.03689194 C61.93508378 122.57047322 61.91998603 121.10400637 61.90837479 119.63751602 C61.89155887 117.58769879 61.86253677 115.53839844 61.83056641 113.48876953 C61.8105809 111.736707 61.8105809 111.736707 61.79019165 109.94924927 C61.78945308 107.05941928 61.78945308 107.05941928 59.51171875 105.203125 C57.20171875 105.203125 54.89171875 105.203125 52.51171875 105.203125 C52.18171875 128.303125 51.85171875 151.403125 51.51171875 175.203125 C49.20171875 175.533125 46.89171875 175.863125 44.51171875 176.203125 C44.50625031 174.33390633 44.50625031 174.33390633 44.50067139 172.42692566 C44.46377427 160.69893512 44.40605966 148.97120844 44.32781601 137.24341869 C44.28826039 131.21361875 44.25611159 125.18396662 44.24072266 119.15405273 C44.22560935 113.33782545 44.19125873 107.52200432 44.14340973 101.70595741 C44.12854085 99.48397661 44.1206746 97.26193784 44.1198349 95.03990746 C44.11748006 91.93395757 44.09051989 88.82914378 44.05761719 85.72338867 C44.06264755 84.79910065 44.06767792 83.87481262 44.07286072 82.92251587 C44.11755017 78.08556857 44.11755017 78.08556857 41.66900635 74.13545227 C38.71432618 72.85851131 36.69294333 72.72932559 33.51171875 73.203125 C30.44646022 76.2890074 30.13618355 78.64321688 30.13317871 82.90296936 C30.12087471 84.64644402 30.12087471 84.64644402 30.10832214 86.42514038 C30.11754448 88.3321019 30.11754448 88.3321019 30.12695312 90.27758789 C30.12284715 91.63290361 30.11738612 92.98821581 30.110672 94.34352112 C30.09895174 97.25953292 30.09646082 100.17535548 30.10102844 103.0913868 C30.1078355 107.70070694 30.09197564 112.30977775 30.07263184 116.91905212 C30.03155144 127.53368439 30.02022448 138.14830981 30.00910187 148.76300812 C29.99860055 158.49440095 29.98186242 168.22567415 29.94100618 177.95699304 C29.92262211 182.54078262 29.91876721 187.12428751 29.92594147 191.70810521 C29.92746059 194.55665622 29.91669717 197.40506404 29.9025631 200.25357628 C29.8966364 202.20792574 29.90567894 204.16230252 29.91511536 206.11663818 C29.90281136 207.8558831 29.90281136 207.8558831 29.89025879 209.63026428 C29.88919003 211.14481248 29.88919003 211.14481248 29.88809967 212.68995762 C29.51171875 215.203125 29.51171875 215.203125 28.11696625 217.06314754 C26.51171875 218.203125 26.51171875 218.203125 24.44921875 218.015625 C22.51171875 217.203125 22.51171875 217.203125 20.51171875 215.203125 C20.31526086 212.74331384 20.24410079 210.39587421 20.26016235 207.9349823 C20.25719221 207.17726054 20.25422208 206.41953878 20.25116193 205.63885576 C20.24349069 203.08622853 20.25002866 200.5338293 20.25634766 197.98120117 C20.25359921 196.15652815 20.2499202 194.33185632 20.24537659 192.50718689 C20.23724963 188.57079135 20.23509989 184.63445267 20.23732376 180.69804955 C20.24015003 174.47535409 20.22583035 168.25277281 20.20834351 162.03010559 C20.16125153 144.33283204 20.13737455 126.63556581 20.13085938 108.93823242 C20.1271112 99.16954582 20.10909984 89.40098791 20.07576501 79.63235646 C20.05551792 73.44510377 20.05319714 67.25818225 20.06404519 61.07090986 C20.0666493 57.22144045 20.0526627 53.37216447 20.03396416 49.52274513 C20.02863403 47.73652475 20.03015294 45.95026893 20.03899956 44.1640625 C20.05009976 41.72631717 20.03671468 39.2898836 20.01724243 36.85221863 C20.02636709 36.14443069 20.03549175 35.43664276 20.04489291 34.7074067 C19.97108383 29.9624881 18.89634309 27.51764809 15.51171875 24.203125 C13.3146138 23.42342121 13.3146138 23.42342121 11.01171875 23.578125 C10.25890625 23.56523438 9.50609375 23.55234375 8.73046875 23.5390625 C5.34213224 24.5531773 4.38556026 26.23509356 2.51171875 29.203125 C2.12696791 32.2066354 1.97235976 34.83958705 2.00619507 37.83927917 C2.00010495 38.70785327 1.99401483 39.57642736 1.98774016 40.47132188 C1.97212643 43.38113738 1.98493389 46.29013141 1.99755859 49.19995117 C1.99209867 51.28609231 1.98485777 53.37222943 1.97596741 55.45835876 C1.96062236 59.94970198 1.9578315 64.44081674 1.96473312 68.9321804 C1.97550268 76.02806437 1.9581589 83.12370866 1.93692017 90.21955872 C1.90665093 101.43679915 1.89496414 112.65396875 1.89134371 123.87124664 C1.88469424 143.9753052 1.85579562 164.0793151 1.80624735 184.18331319 C1.78970506 191.24357593 1.78434112 198.30373568 1.78783774 205.36401594 C1.78827335 209.74645106 1.78073192 214.12884696 1.77116203 218.51127052 C1.76846894 220.55031806 1.7692483 222.58937345 1.7736721 224.62841797 C1.77927497 227.40168713 1.77280981 230.17466964 1.76327515 232.94792175 C1.76793836 233.76356651 1.77260157 234.57921127 1.7774061 235.41957253 C1.73984769 240.97499606 1.73984769 240.97499606 -0.48828125 243.203125 C-3.21049119 243.55212627 -4.81073059 243.65735717 -7.12435818 242.10629368 C-9.16894925 239.25334561 -8.86790452 236.92319485 -8.87355042 233.43992615 C-8.87878611 232.74865366 -8.88402181 232.05738116 -8.88941616 231.34516102 C-8.90341106 229.02346939 -8.89606809 226.70233094 -8.88891602 224.38061523 C-8.89465658 222.71840927 -8.90173854 221.05620747 -8.9100647 219.39401245 C-8.92519454 215.81228714 -8.93095066 212.23071104 -8.92953682 208.64895439 C-8.92750732 202.9898483 -8.94704086 197.33094372 -8.9697113 191.67189026 C-9.01072328 180.68380665 -9.02930337 169.69573877 -9.04588318 158.70759583 C-9.06822674 144.7169766 -9.10167342 130.72640358 -9.15308231 116.73586041 C-9.17305433 111.10565771 -9.18258726 105.4755602 -9.18403447 99.84532344 C-9.18677686 96.34895607 -9.19758919 92.85264716 -9.21054459 89.35630417 C-9.21483906 87.73007687 -9.21567437 86.10383637 -9.21286964 84.47760582 C-9.20948979 82.26471431 -9.2182027 80.05219499 -9.22999573 77.83934021 C-9.23244718 75.9785541 -9.23244718 75.9785541 -9.23494816 74.08017635 C-9.18925421 71.07391305 -9.18925421 71.07391305 -11.48828125 69.203125 C-13.39649186 68.84799121 -13.39649186 68.84799121 -15.48828125 68.890625 C-16.54015625 68.86548828 -16.54015625 68.86548828 -17.61328125 68.83984375 C-18.23203125 68.95972656 -18.85078125 69.07960938 -19.48828125 69.203125 C-21.55734007 72.30671323 -21.74128105 72.99259709 -21.76675415 76.51213074 C-21.77791763 77.39132675 -21.78908112 78.27052277 -21.80058289 79.17636108 C-21.80382317 80.61889755 -21.80382317 80.61889755 -21.80712891 82.09057617 C-21.81717453 83.10538559 -21.82722015 84.12019501 -21.83757019 85.16575623 C-21.86850377 88.52586288 -21.88546569 91.88588949 -21.90234375 95.24609375 C-21.9210472 97.57351882 -21.94061998 99.90093704 -21.96102905 102.22834778 C-22.01244313 108.35871354 -22.05201923 114.4891013 -22.08917236 120.61956787 C-22.12915389 126.8733875 -22.18027289 133.12711486 -22.23046875 139.38085938 C-22.32733787 151.65488318 -22.41170747 163.92895898 -22.48828125 176.203125 C-24.79828125 175.873125 -27.10828125 175.543125 -29.48828125 175.203125 C-29.4963681 174.24290436 -29.50445496 173.28268372 -29.51278687 172.29336548 C-29.59016521 163.25815652 -29.67788312 154.2230997 -29.77580833 145.18808937 C-29.82582194 140.54274119 -29.87215134 135.89741631 -29.91015625 131.25195312 C-29.94694533 126.77148116 -29.99328749 122.29120184 -30.04634476 117.81089401 C-30.06492274 116.098854 -30.08001803 114.38677264 -30.09162521 112.67467117 C-30.10842977 110.28242378 -30.13744977 107.89062088 -30.16943359 105.49853516 C-30.17159378 104.78571884 -30.17375397 104.07290253 -30.17597961 103.33848572 C-30.13941347 99.32426585 -30.13941347 99.32426585 -32.48828125 96.203125 C-35.53011018 95.95307114 -35.53011018 95.95307114 -38.48828125 96.203125 C-40.39462561 98.10946936 -39.67217641 101.60390019 -39.69360352 104.20141602 C-39.70350311 104.93307983 -39.71340271 105.66474365 -39.72360229 106.4185791 C-39.75530508 108.84802972 -39.78000918 111.27749993 -39.8046875 113.70703125 C-39.82524947 115.38712587 -39.84624573 117.06721523 -39.86766052 118.74729919 C-39.92295951 123.17780303 -39.97233412 127.60835415 -40.02050781 132.03894043 C-40.07066585 136.55660225 -40.12638158 141.07419508 -40.18164062 145.59179688 C-40.28931785 154.4621807 -40.39074143 163.33262432 -40.48828125 172.203125 C-46.23828125 171.453125 -46.23828125 171.453125 -48.48828125 169.203125 C-48.66367561 166.26215763 -48.719605 163.41659151 -48.68359375 160.4765625 C-48.68076385 159.61374664 -48.67793396 158.75093079 -48.67501831 157.86196899 C-48.66380458 155.1005478 -48.63869809 152.3394485 -48.61328125 149.578125 C-48.60325298 147.70833801 -48.59412687 145.83854595 -48.5859375 143.96875 C-48.56386137 139.38008391 -48.52932359 134.79165907 -48.48828125 130.203125 C-57.13462126 131.83968369 -65.63242008 133.60244062 -74.05078125 136.203125 C-75.3047168 136.574375 -75.3047168 136.574375 -76.58398438 136.953125 C-81.14065013 138.33633421 -85.27277307 139.94904234 -89.48828125 142.203125 C-90.143125 142.48414063 -90.79796875 142.76515625 -91.47265625 143.0546875 C-98.16387395 145.98579614 -105.37738843 151.06025125 -108.7421875 157.6640625 C-110.37836846 163.2322176 -110.71873908 168.5926096 -108.203125 173.9296875 C-96.57361087 191.46667692 -72.84312866 199.13658574 -53.19067383 203.29541016 C-42.67649067 205.41349955 -32.16217659 207.13732621 -21.48828125 208.203125 C-20.35347598 211.81305672 -20.38812358 215.1873577 -20.42578125 218.953125 C-20.43480469 220.12359375 -20.44382813 221.2940625 -20.453125 222.5 C-20.47052734 223.83804688 -20.47052734 223.83804688 -20.48828125 225.203125 C-28.36918503 225.4477349 -35.78652208 224.77591571 -43.55078125 223.453125 C-45.18660156 223.18024658 -45.18660156 223.18024658 -46.85546875 222.90185547 C-74.20701526 218.24550376 -109.70954853 210.59922969 -127.2109375 186.8671875 C-132.15980662 179.63692482 -133.53217988 174.0090818 -132.48828125 165.203125 C-128.30417466 151.90659654 -118.0363068 144.36304646 -106.19921875 138.05078125 C-90.79084501 130.19161338 -74.48828274 125.89055039 -57.48828125 123.203125 C-87.2023636 124.38931591 -122.23900111 134.55542086 -143.48828125 156.203125 C-149.48974347 163.89730734 -150.50544751 171.68071748 -149.48828125 181.203125 C-144.95855602 198.79429096 -130.42090763 209.86855394 -115.6328125 218.78125 C-102.68873339 226.42037866 -89.02858287 232.21294357 -74.40429688 235.73168945 C-71.47217993 236.45313668 -68.57983106 237.3142154 -65.67578125 238.140625 C-49.01529572 242.67404744 -31.58540368 244.15515797 -14.48828125 246.203125 C-13.35174936 257.69016942 -13.35174936 257.69016942 -13.42578125 263.390625 C-13.43480469 264.31230469 -13.44382813 265.23398437 -13.453125 266.18359375 C-13.47052734 267.18326172 -13.47052734 267.18326172 -13.48828125 268.203125 C-25.07662274 267.93611252 -36.44682459 266.96446731 -47.92578125 265.328125 C-49.07272461 265.16666992 -50.21966797 265.00521484 -51.40136719 264.83886719 C-87.01239824 259.56429687 -127.00560859 246.82097048 -152.48828125 220.203125 C-153.31714844 219.3471875 -154.14601563 218.49125 -155 217.609375 C-165.6451262 206.20765305 -173.15516363 193.75300128 -172.734375 177.73828125 C-171.23795137 162.32274257 -160.76961907 150.44376418 -149.48828125 140.703125 C-139.27568208 132.61336948 -127.52290105 126.14173788 -115.48828125 121.203125 C-139.20700589 129.52991131 -164.91555811 140.98520421 -177.48828125 164.203125 C-178.18035245 165.85940387 -178.85350963 167.52405168 -179.48828125 169.203125 C-179.81828125 169.203125 -180.14828125 169.203125 -180.48828125 169.203125 C-180.75724075 163.22081367 -179.78007599 157.89483894 -178.42578125 152.078125 C-178.20317627 151.11817627 -177.98057129 150.15822754 -177.7512207 149.16918945 C-171.1443307 121.62208485 -159.64009372 97.70601946 -142.48828125 75.203125 C-141.67617187 74.08357422 -141.67617187 74.08357422 -140.84765625 72.94140625 C-126.74224443 54.22949733 -108.39081447 39.2942373 -88.48828125 27.203125 C-87.39128906 26.52507812 -86.29429687 25.84703125 -85.1640625 25.1484375 C-75.67864413 19.48583002 -65.77464798 15.18811485 -55.48828125 11.203125 C-54.84810059 10.95433594 -54.20791992 10.70554687 -53.54833984 10.44921875 C-36.65559809 4.02786701 -18.08956498 0.11011742 0 0 Z " fill="#151414" transform="translate(243.48828125,62.796875)"/>
<path d="M0 0 C2.22964327 2.22964327 3.24871504 4.52405894 4.56323242 7.3581543 C8.33131367 15.43471838 12.56075557 21.73445388 19 28 C19.86625 28.9075 20.7325 29.815 21.625 30.75 C40.1575327 48.30713624 63.06421583 58.8823681 87 67 C88.46092509 67.55573396 89.91970624 68.11718217 91.375 68.6875 C115.01571696 77.24706993 142.01389145 80.81231751 167.06469727 81.71020508 C170.52144566 81.83427772 173.66773956 82.08161336 177 83 C178.06059488 90.68931285 178.09928082 98.24506486 178 106 C155.75416888 106.99115089 133.6228983 102.80164647 112 98 C110.81277344 97.74283203 110.81277344 97.74283203 109.6015625 97.48046875 C100.91679782 95.57971064 92.75582615 92.94688731 84.578125 89.49609375 C81.26638829 88.11138287 77.93298505 86.85780057 74.5625 85.625 C66.76112324 82.63033948 59.38053816 78.89961499 52 75 C51.32501465 74.64389648 50.6500293 74.28779297 49.95458984 73.92089844 C40.06750945 68.65379399 30.99843262 62.65758162 22 56 C21.01 55.34 20.02 54.68 19 54 C24.8649315 62.49741641 30.84901684 70.51759873 38 78 C38.67160156 78.74636719 39.34320313 79.49273437 40.03515625 80.26171875 C56.68390053 98.09299067 81.97498576 108.3665799 105 115 C105.84594727 115.25475098 106.69189453 115.50950195 107.56347656 115.77197266 C120.94334455 119.79466222 134.13152907 122.39749357 148 124 C149.59639664 124.19496501 151.1927519 124.39026922 152.7890625 124.5859375 C162.17648089 125.70626295 171.56103246 126.47097232 181 127 C181.7213011 143.01058231 182.14453125 158.97308977 182 175 C173.28744838 175.29348166 165.12803666 174.50994338 156.5625 172.9375 C155.34256348 172.71489502 154.12262695 172.49229004 152.86572266 172.26293945 C141.85385257 170.14837778 131.42674246 167.1028179 121 163 C119.86159668 162.55382324 119.86159668 162.55382324 118.70019531 162.09863281 C101.37073879 155.15634295 84.38689618 145.94678489 70 134 C69.42620605 133.53013672 68.85241211 133.06027344 68.26123047 132.57617188 C54.43734602 121.20333077 42.52166563 108.68945959 32.34716797 93.94628906 C31.44766886 92.646759 30.53774811 91.35438221 29.61767578 90.06933594 C17.16122146 72.63814785 9.26155161 52.36527146 4.4375 31.5625 C4.22931641 30.68529297 4.02113281 29.80808594 3.80664062 28.90429688 C-0.29387298 11.46104621 -0.29387298 11.46104621 -0.125 4.875 C-0.10695312 3.94429688 -0.08890625 3.01359375 -0.0703125 2.0546875 C-0.04710937 1.37664062 -0.02390625 0.69859375 0 0 Z " fill="#161415" transform="translate(62,270)"/>
<path d="M0 0 C0.33 0 0.66 0 1 0 C1.3787131 9.27177652 0.39782151 17.55300831 -1.75 26.5625 C-2.12898438 28.25536133 -2.12898438 28.25536133 -2.515625 29.98242188 C-10.51360228 64.75362808 -28.55705298 94.39469024 -53 120 C-53.53133545 120.5583252 -54.0626709 121.11665039 -54.61010742 121.69189453 C-58.80759273 126.00424084 -63.26053386 129.75468111 -68.0625 133.375 C-68.80564453 133.93735352 -69.54878906 134.49970703 -70.31445312 135.07910156 C-93.34719549 152.32902965 -118.19970639 163.76351852 -146 171 C-147.22332031 171.33128906 -148.44664062 171.66257812 -149.70703125 172.00390625 C-159.99880846 174.53106863 -170.45205665 174.72671375 -181 175 C-181.02521659 170.73568064 -181.04309668 166.4714038 -181.05493164 162.20703125 C-181.05987901 160.7643152 -181.06663847 159.32160393 -181.07543945 157.87890625 C-181.1367893 147.54326173 -180.7690702 137.30744821 -180 127 C-178.59028931 126.89510254 -178.59028931 126.89510254 -177.15209961 126.78808594 C-149.56047841 124.7063847 -123.55370475 121.16859267 -97 113 C-96.19304687 112.75523926 -95.38609375 112.51047852 -94.5546875 112.25830078 C-82.62692012 108.57762866 -71.83820508 103.15085561 -61 97 C-59.95972656 96.41347656 -58.91945313 95.82695312 -57.84765625 95.22265625 C-41.05546906 85.13748068 -29.02536316 70.88284898 -18 55 C-21.23460705 56.48036936 -23.86772708 58.3397972 -26.6875 60.5 C-39.81915938 70.11828826 -54.19168951 77.34509423 -69 84 C-69.67256836 84.30454102 -70.34513672 84.60908203 -71.03808594 84.92285156 C-78.24873513 88.17112268 -85.37144137 90.937387 -93 93 C-94.37543011 93.39302915 -95.75038796 93.7877129 -97.125 94.18359375 C-122.68136121 101.49599472 -150.28054751 106.97754094 -177 106 C-177.02734471 103.66658501 -177.04700237 101.33350051 -177.0625 99 C-177.07410156 97.700625 -177.08570313 96.40125 -177.09765625 95.0625 C-177.0667101 90.98160152 -176.57241013 87.03842109 -176 83 C-166.74082153 81.72005474 -157.50680738 80.77486047 -148.1875 80.0625 C-133.12631435 78.86962854 -118.58200965 76.826985 -104.05078125 72.58007812 C-101.80363059 71.94445551 -99.54531067 71.36924989 -97.28125 70.796875 C-63.79046648 62.1051272 -26.51918246 44.91555128 -7 15 C-4.2510087 10.15441493 -1.76355049 5.29065146 0 0 Z " fill="#161415" transform="translate(446,270)"/>
<path d="M0 0 C0 1.65 0 3.3 0 5 C-1.03125 5.515625 -2.0625 6.03125 -3.125 6.5625 C-7.29999475 8.99437067 -10.63061072 11.73007586 -13 16 C-14.04098372 20.56125689 -13.47255383 23.95216324 -11.5625 28.1875 C-5.63263277 34.69589086 1.78598808 38.16451291 10 41 C10.79148438 41.27714844 11.58296875 41.55429688 12.3984375 41.83984375 C18.32239692 43.76656842 24.24109343 44.74969037 30.41015625 45.5703125 C33 46 33 46 34 47 C34.07179964 48.51928038 34.08392007 50.04167482 34.0625 51.5625 C34.05347656 52.38878906 34.04445313 53.21507812 34.03515625 54.06640625 C34.02355469 54.70449219 34.01195312 55.34257812 34 56 C13.94011269 56.8277138 -12.6683096 50.68973588 -28.125 37.13671875 C-32.29926664 33.07185829 -34.16685038 30.75859003 -34.4375 24.8125 C-34.35888565 19.78773303 -33.61393409 17.12267314 -30.0078125 13.6171875 C-22.12982375 7.27188139 -10.6199742 0 0 0 Z " fill="#1C1B1B" transform="translate(188,205)"/>
<path d="M0 0 C11.27580803 1.57218913 22.6589179 6.25833674 30.5 14.6875 C33.18148608 18.82145771 33.74287315 23.17132453 33 28 C31.1303629 31.74511681 28.87911685 34.31084655 25.75 37.0625 C25.02296875 37.71347656 24.2959375 38.36445313 23.546875 39.03515625 C17.86596006 43.41782529 12.10485691 45.91037229 5.3125 48 C4.08877686 48.38019287 4.08877686 48.38019287 2.84033203 48.76806641 C-3.25513144 50.60169887 -9.39050071 52.09648992 -15.625 53.375 C-16.42897217 53.54257812 -17.23294434 53.71015625 -18.0612793 53.8828125 C-23.45349208 54.92130445 -28.50995066 55.14245637 -34 55 C-34 51.7 -34 48.4 -34 45 C-33.01902344 44.84144531 -32.03804688 44.68289062 -31.02734375 44.51953125 C-17.82822836 42.28094018 -5.5501125 39.01872508 6 32 C6.71285156 31.66355469 7.42570312 31.32710937 8.16015625 30.98046875 C10.16274272 30.10978422 10.16274272 30.10978422 11.25 28 C12.35087643 23.59649427 12.69492735 19.50255013 12 15 C9.59171347 11.13214588 6.90068325 8.87309686 3.1875 6.375 C2.135625 5.59125 1.08375 4.8075 0 4 C0 2.68 0 1.36 0 0 Z " fill="#1A1A1A" transform="translate(322,206)"/>
<path d="M0 0 C8.76277036 0.54554602 17.25500403 1.79491188 25.875 3.4375 C27.05835938 3.65470703 28.24171875 3.87191406 29.4609375 4.09570312 C34.80036268 5.09684535 39.86583019 6.19438317 45 8 C44.34 8.33 43.68 8.66 43 9 C43.495 10.485 43.495 10.485 44 12 C43.42386963 11.81896729 42.84773926 11.63793457 42.25415039 11.45141602 C35.3754145 9.33399242 28.44082304 7.59006446 21.4375 5.9375 C20.36564453 5.68162109 19.29378906 5.42574219 18.18945312 5.16210938 C12.13729932 3.72217798 6.07665565 2.33265586 0 1 C0 0.67 0 0.34 0 0 Z " fill="#DADADA" transform="translate(316,184)"/>
<path d="M0 0 C-2.82547417 1.88364945 -4.14081211 2.39396833 -7.3515625 3 C-8.20363281 3.165 -9.05570313 3.33 -9.93359375 3.5 C-10.82175781 3.665 -11.70992187 3.83 -12.625 4 C-14.36737064 4.33237473 -16.10955973 4.66570262 -17.8515625 5 C-18.70266602 5.16242188 -19.55376953 5.32484375 -20.43066406 5.4921875 C-24.30373832 6.25767538 -28.15021006 7.12540269 -32 8 C-32 7.34 -32 6.68 -32 6 C-32.66 5.67 -33.32 5.34 -34 5 C-30.02381805 4.15198842 -26.04365881 3.32430261 -22.0625 2.5 C-20.94552734 2.26152344 -19.82855469 2.02304688 -18.67773438 1.77734375 C-12.31197515 0.47058966 -6.49744858 -0.27560757 0 0 Z " fill="#C8C8C8" transform="translate(189,185)"/>
<path d="M0 0 C-0.51385254 0.22139648 -1.02770508 0.44279297 -1.55712891 0.67089844 C-3.9157548 1.69121781 -6.27035558 2.72052756 -8.625 3.75 C-9.83736328 4.27207031 -9.83736328 4.27207031 -11.07421875 4.8046875 C-14.72328655 6.40671727 -18.17345362 7.99935951 -21.4609375 10.265625 C-24 12 -24 12 -26 12 C-26 11.34 -26 10.68 -26 10 C-26.66 9.67 -27.32 9.34 -28 9 C-24.95992315 7.70456897 -21.91766448 6.41434023 -18.875 5.125 C-18.0190625 4.76019531 -17.163125 4.39539063 -16.28125 4.01953125 C-3.7925053 -1.26416843 -3.7925053 -1.26416843 0 0 Z " fill="#D9D9D9" transform="translate(131,184)"/>
<path d="M0 0 C3.7812617 0.68118317 7.35121112 1.6742506 11 2.875 C12.010625 3.20242187 13.02125 3.52984375 14.0625 3.8671875 C16.95539443 4.98279838 19.37883849 6.35788014 22 8 C23.65369357 8.69822617 25.31727014 9.37498605 27 10 C26.67 10.99 26.34 11.98 26 13 C25.44731445 12.71914551 24.89462891 12.43829102 24.32519531 12.14892578 C21.83720468 10.91955956 19.32427753 9.76333516 16.796875 8.6171875 C15.8171875 8.17246094 14.8375 7.72773438 13.828125 7.26953125 C12.81234375 6.80933594 11.7965625 6.34914062 10.75 5.875 C9.71875 5.40707031 8.6875 4.93914062 7.625 4.45703125 C5.08364093 3.30400723 2.54196437 2.1516888 0 1 C0 0.67 0 0.34 0 0 Z " fill="#BBBBBB" transform="translate(378,183)"/>
<path d="M0 0 C10.13704052 0.57641995 20.01757646 2.23643851 30 4 C26.5300131 6.19329361 24.46926002 6.03958398 20.5 5.25 C18.92605469 4.94835937 18.92605469 4.94835937 17.3203125 4.640625 C16.22460938 4.42921875 15.12890625 4.2178125 14 4 C10.80066435 3.51234145 7.60032158 3.03311813 4.3984375 2.5625 C2 2 2 2 0 0 Z " fill="#AFAFB0" transform="translate(316,184)"/>
<path d="M0 0 C0.30164063 0.62261719 0.60328125 1.24523437 0.9140625 1.88671875 C1.93396735 4.02176599 1.93396735 4.02176599 3.375 5.8125 C4 8 4 8 3.3046875 9.73828125 C1.75644943 12.50790713 0.25195312 14.74804688 -2 17 C-2.25706972 11.08739655 -1.2982126 5.76081841 0 0 Z " fill="#393A39" transform="translate(65,215)"/>
<path d="M0 0 C0.33 0 0.66 0 1 0 C1.02717692 2.06242617 1.0464758 4.12495703 1.0625 6.1875 C1.07410156 7.33605469 1.08570313 8.48460937 1.09765625 9.66796875 C1.01192832 12.59300586 0.67849023 15.16316291 0 18 C-0.33 18 -0.66 18 -1 18 C-1.33 15.69 -1.66 13.38 -2 11 C-2.99 11.495 -2.99 11.495 -4 12 C-2.66666667 8 -1.33333333 4 0 0 Z " fill="#414242" transform="translate(446,270)"/>
<path d="M0 0 C-2.26419196 1.05881632 -4.53435538 2.09702932 -6.8125 3.125 C-7.77639648 3.57939453 -7.77639648 3.57939453 -8.75976562 4.04296875 C-10.64453125 4.8828125 -10.64453125 4.8828125 -14 6 C-14.99 5.34 -15.98 4.68 -17 4 C-14.73291675 3.1344953 -12.46224921 2.28240685 -10.1875 1.4375 C-9.54490234 1.19064453 -8.90230469 0.94378906 -8.24023438 0.68945312 C-3.33984375 -1.11328125 -3.33984375 -1.11328125 0 0 Z " fill="#A4A5A4" transform="translate(131,184)"/>
<path d="M0 0 C2.6855594 2.6855594 3.06049974 5.37621328 4 9 C2.02 9.99 2.02 9.99 0 11 C0 7.37 0 3.74 0 0 Z " fill="#545454" transform="translate(62,270)"/>
<path d="M0 0 C2.64 0 5.28 0 8 0 C8 0.33 8 0.66 8 1 C6.576875 1.37125 6.576875 1.37125 5.125 1.75 C1.91306809 2.6857077 1.91306809 2.6857077 0.625 5.125 C0.41875 5.74375 0.2125 6.3625 0 7 C0 4.69 0 2.38 0 0 Z " fill="#4E4E4E" transform="translate(265,309)"/>
<path d="M0 0 C0.33 0 0.66 0 1 0 C1.33 3.96 1.66 7.92 2 12 C-0.22050056 9.77949944 -0.57774742 9.0402186 -1 6 C-0.72949547 3.99053778 -0.40632091 1.98645776 0 0 Z " fill="#7E7F7F" transform="translate(445,222)"/>
</svg>
